<mxfile host="app.diagrams.net" agent="Mozilla/5.0 (Windows NT 10.0; Win64; x64) AppleWebKit/537.36 (KHTML, like Gecko) Chrome/133.0.0.0 Safari/537.36" version="26.0.16">
  <diagram id="C5RBs43oDa-KdzZeNtuy" name="Page-1">
    <mxGraphModel dx="1320" dy="1228" grid="1" gridSize="10" guides="1" tooltips="1" connect="1" arrows="1" fold="1" page="1" pageScale="1" pageWidth="827" pageHeight="1169" math="0" shadow="0">
      <root>
        <mxCell id="WIyWlLk6GJQsqaUBKTNV-0" />
        <mxCell id="WIyWlLk6GJQsqaUBKTNV-1" parent="WIyWlLk6GJQsqaUBKTNV-0" />
        <mxCell id="N66KOdTRDhuXBl9-8L6U-13" style="edgeStyle=elbowEdgeStyle;rounded=0;orthogonalLoop=1;jettySize=auto;html=1;exitX=1;exitY=0.5;exitDx=0;exitDy=0;entryX=0;entryY=0.5;entryDx=0;entryDy=0;" edge="1" parent="WIyWlLk6GJQsqaUBKTNV-1" source="WIyWlLk6GJQsqaUBKTNV-3" target="N66KOdTRDhuXBl9-8L6U-2">
          <mxGeometry relative="1" as="geometry">
            <mxPoint x="330" y="390" as="targetPoint" />
          </mxGeometry>
        </mxCell>
        <mxCell id="WIyWlLk6GJQsqaUBKTNV-3" value="Index.html" style="rounded=1;whiteSpace=wrap;html=1;fontSize=12;glass=0;strokeWidth=1;shadow=0;" parent="WIyWlLk6GJQsqaUBKTNV-1" vertex="1">
          <mxGeometry x="150" y="545" width="120" height="40" as="geometry" />
        </mxCell>
        <mxCell id="N66KOdTRDhuXBl9-8L6U-0" value="MenÃº principal" style="text;html=1;align=center;verticalAlign=middle;whiteSpace=wrap;rounded=0;" vertex="1" parent="WIyWlLk6GJQsqaUBKTNV-1">
          <mxGeometry x="180" y="510" width="60" height="30" as="geometry" />
        </mxCell>
        <mxCell id="N66KOdTRDhuXBl9-8L6U-2" value="Piscina&amp;nbsp;" style="rounded=1;whiteSpace=wrap;html=1;" vertex="1" parent="WIyWlLk6GJQsqaUBKTNV-1">
          <mxGeometry x="400" y="20" width="186" height="60" as="geometry" />
        </mxCell>
        <mxCell id="N66KOdTRDhuXBl9-8L6U-3" value="Rank 00" style="rounded=1;whiteSpace=wrap;html=1;" vertex="1" parent="WIyWlLk6GJQsqaUBKTNV-1">
          <mxGeometry x="400" y="445" width="186" height="60" as="geometry" />
        </mxCell>
        <mxCell id="N66KOdTRDhuXBl9-8L6U-4" value="Rank 01" style="rounded=1;whiteSpace=wrap;html=1;" vertex="1" parent="WIyWlLk6GJQsqaUBKTNV-1">
          <mxGeometry x="400" y="530" width="186" height="60" as="geometry" />
        </mxCell>
        <mxCell id="N66KOdTRDhuXBl9-8L6U-5" value="Rank 02" style="rounded=1;whiteSpace=wrap;html=1;" vertex="1" parent="WIyWlLk6GJQsqaUBKTNV-1">
          <mxGeometry x="400" y="620" width="186" height="60" as="geometry" />
        </mxCell>
        <mxCell id="N66KOdTRDhuXBl9-8L6U-6" value="Rank 03" style="rounded=1;whiteSpace=wrap;html=1;" vertex="1" parent="WIyWlLk6GJQsqaUBKTNV-1">
          <mxGeometry x="400" y="705" width="186" height="60" as="geometry" />
        </mxCell>
        <mxCell id="N66KOdTRDhuXBl9-8L6U-8" value="Rank 04" style="rounded=1;whiteSpace=wrap;html=1;" vertex="1" parent="WIyWlLk6GJQsqaUBKTNV-1">
          <mxGeometry x="400" y="790" width="186" height="60" as="geometry" />
        </mxCell>
        <mxCell id="N66KOdTRDhuXBl9-8L6U-9" value="Rank 05" style="rounded=1;whiteSpace=wrap;html=1;" vertex="1" parent="WIyWlLk6GJQsqaUBKTNV-1">
          <mxGeometry x="400" y="875" width="186" height="60" as="geometry" />
        </mxCell>
        <mxCell id="N66KOdTRDhuXBl9-8L6U-10" value="Rank 06" style="rounded=1;whiteSpace=wrap;html=1;" vertex="1" parent="WIyWlLk6GJQsqaUBKTNV-1">
          <mxGeometry x="400" y="960" width="186" height="60" as="geometry" />
        </mxCell>
        <mxCell id="N66KOdTRDhuXBl9-8L6U-14" style="edgeStyle=elbowEdgeStyle;rounded=0;orthogonalLoop=1;jettySize=auto;html=1;exitX=1;exitY=0.5;exitDx=0;exitDy=0;" edge="1" parent="WIyWlLk6GJQsqaUBKTNV-1" source="WIyWlLk6GJQsqaUBKTNV-3" target="N66KOdTRDhuXBl9-8L6U-3">
          <mxGeometry relative="1" as="geometry">
            <mxPoint x="410" y="400" as="targetPoint" />
            <mxPoint x="280" y="575" as="sourcePoint" />
          </mxGeometry>
        </mxCell>
        <mxCell id="N66KOdTRDhuXBl9-8L6U-15" style="edgeStyle=elbowEdgeStyle;rounded=0;orthogonalLoop=1;jettySize=auto;html=1;exitX=1;exitY=0.5;exitDx=0;exitDy=0;entryX=0;entryY=0.5;entryDx=0;entryDy=0;" edge="1" parent="WIyWlLk6GJQsqaUBKTNV-1" source="WIyWlLk6GJQsqaUBKTNV-3" target="N66KOdTRDhuXBl9-8L6U-4">
          <mxGeometry relative="1" as="geometry">
            <mxPoint x="410" y="485" as="targetPoint" />
            <mxPoint x="280" y="575" as="sourcePoint" />
          </mxGeometry>
        </mxCell>
        <mxCell id="N66KOdTRDhuXBl9-8L6U-16" style="edgeStyle=elbowEdgeStyle;rounded=0;orthogonalLoop=1;jettySize=auto;html=1;exitX=1;exitY=0.5;exitDx=0;exitDy=0;entryX=0;entryY=0.5;entryDx=0;entryDy=0;" edge="1" parent="WIyWlLk6GJQsqaUBKTNV-1" source="WIyWlLk6GJQsqaUBKTNV-3" target="N66KOdTRDhuXBl9-8L6U-5">
          <mxGeometry relative="1" as="geometry">
            <mxPoint x="410" y="570" as="targetPoint" />
            <mxPoint x="280" y="575" as="sourcePoint" />
          </mxGeometry>
        </mxCell>
        <mxCell id="N66KOdTRDhuXBl9-8L6U-17" style="edgeStyle=elbowEdgeStyle;rounded=0;orthogonalLoop=1;jettySize=auto;html=1;exitX=1;exitY=0.5;exitDx=0;exitDy=0;" edge="1" parent="WIyWlLk6GJQsqaUBKTNV-1" source="WIyWlLk6GJQsqaUBKTNV-3" target="N66KOdTRDhuXBl9-8L6U-6">
          <mxGeometry relative="1" as="geometry">
            <mxPoint x="410" y="660" as="targetPoint" />
            <mxPoint x="280" y="575" as="sourcePoint" />
          </mxGeometry>
        </mxCell>
        <mxCell id="N66KOdTRDhuXBl9-8L6U-18" style="edgeStyle=elbowEdgeStyle;rounded=0;orthogonalLoop=1;jettySize=auto;html=1;exitX=1;exitY=0.5;exitDx=0;exitDy=0;" edge="1" parent="WIyWlLk6GJQsqaUBKTNV-1" source="WIyWlLk6GJQsqaUBKTNV-3">
          <mxGeometry relative="1" as="geometry">
            <mxPoint x="400" y="820" as="targetPoint" />
            <mxPoint x="270" y="650" as="sourcePoint" />
          </mxGeometry>
        </mxCell>
        <mxCell id="N66KOdTRDhuXBl9-8L6U-19" style="edgeStyle=elbowEdgeStyle;rounded=0;orthogonalLoop=1;jettySize=auto;html=1;exitX=1;exitY=0.5;exitDx=0;exitDy=0;" edge="1" parent="WIyWlLk6GJQsqaUBKTNV-1" source="WIyWlLk6GJQsqaUBKTNV-3">
          <mxGeometry relative="1" as="geometry">
            <mxPoint x="400" y="905" as="targetPoint" />
            <mxPoint x="270" y="650" as="sourcePoint" />
          </mxGeometry>
        </mxCell>
        <mxCell id="N66KOdTRDhuXBl9-8L6U-20" style="edgeStyle=elbowEdgeStyle;rounded=0;orthogonalLoop=1;jettySize=auto;html=1;exitX=1;exitY=0.5;exitDx=0;exitDy=0;" edge="1" parent="WIyWlLk6GJQsqaUBKTNV-1" source="WIyWlLk6GJQsqaUBKTNV-3">
          <mxGeometry relative="1" as="geometry">
            <mxPoint x="400" y="990" as="targetPoint" />
            <mxPoint x="270" y="650" as="sourcePoint" />
          </mxGeometry>
        </mxCell>
        <mxCell id="N66KOdTRDhuXBl9-8L6U-28" value="Text" style="text;strokeColor=none;align=center;fillColor=none;html=1;verticalAlign=middle;whiteSpace=wrap;rounded=0;" vertex="1" parent="WIyWlLk6GJQsqaUBKTNV-1">
          <mxGeometry x="50" y="540" width="60" height="30" as="geometry" />
        </mxCell>
      </root>
    </mxGraphModel>
  </diagram>
</mxfile>
